<mxfile host="www.draw.io" modified="2020-02-15T07:52:55.462Z" agent="Mozilla/5.0 (Windows NT 6.3; WOW64; rv:60.0) Gecko/20100101 Firefox/60.0" etag="rrRBFTDYk1HEDiyP4rRO" version="12.7.0" type="github">
  <diagram name="Page-1" id="c4acf3e9-155e-7222-9cf6-157b1a14988f">
    <mxGraphModel dx="1422" dy="791" grid="1" gridSize="10" guides="1" tooltips="1" connect="1" arrows="1" fold="1" page="1" pageScale="1" pageWidth="850" pageHeight="1100" background="#ffffff" math="0" shadow="0">
      <root>
        <mxCell id="0"/>
        <mxCell id="1" parent="0"/>
        <mxCell id="OV3nKJfsx8NweEMUyQGC-10" style="edgeStyle=none;rounded=0;orthogonalLoop=1;jettySize=auto;html=1;endArrow=none;endFill=0;entryX=0;entryY=0.5;entryDx=0;entryDy=0;" edge="1" parent="1" source="OV3nKJfsx8NweEMUyQGC-1" target="OV3nKJfsx8NweEMUyQGC-8">
          <mxGeometry relative="1" as="geometry"/>
        </mxCell>
        <mxCell id="OV3nKJfsx8NweEMUyQGC-11" style="edgeStyle=none;rounded=0;orthogonalLoop=1;jettySize=auto;html=1;entryX=0;entryY=0.5;entryDx=0;entryDy=0;endArrow=none;endFill=0;" edge="1" parent="1" source="OV3nKJfsx8NweEMUyQGC-1" target="OV3nKJfsx8NweEMUyQGC-7">
          <mxGeometry relative="1" as="geometry"/>
        </mxCell>
        <mxCell id="OV3nKJfsx8NweEMUyQGC-26" style="edgeStyle=none;rounded=0;orthogonalLoop=1;jettySize=auto;html=1;entryX=0;entryY=0.5;entryDx=0;entryDy=0;endArrow=none;endFill=0;" edge="1" parent="1" source="OV3nKJfsx8NweEMUyQGC-1" target="OV3nKJfsx8NweEMUyQGC-3">
          <mxGeometry relative="1" as="geometry"/>
        </mxCell>
        <mxCell id="OV3nKJfsx8NweEMUyQGC-31" style="edgeStyle=none;rounded=0;orthogonalLoop=1;jettySize=auto;html=1;entryX=0;entryY=0.5;entryDx=0;entryDy=0;endArrow=none;endFill=0;" edge="1" parent="1" target="OV3nKJfsx8NweEMUyQGC-30">
          <mxGeometry relative="1" as="geometry">
            <mxPoint x="190" y="301" as="sourcePoint"/>
          </mxGeometry>
        </mxCell>
        <mxCell id="OV3nKJfsx8NweEMUyQGC-32" style="edgeStyle=none;rounded=0;orthogonalLoop=1;jettySize=auto;html=1;entryX=0;entryY=0.5;entryDx=0;entryDy=0;endArrow=none;endFill=0;" edge="1" parent="1" source="OV3nKJfsx8NweEMUyQGC-1" target="OV3nKJfsx8NweEMUyQGC-29">
          <mxGeometry relative="1" as="geometry"/>
        </mxCell>
        <mxCell id="OV3nKJfsx8NweEMUyQGC-1" value="&lt;div&gt;User&lt;/div&gt;" style="shape=umlActor;verticalLabelPosition=bottom;labelBackgroundColor=#ffffff;verticalAlign=top;html=1;" vertex="1" parent="1">
          <mxGeometry x="150" y="240" width="40" height="80" as="geometry"/>
        </mxCell>
        <mxCell id="OV3nKJfsx8NweEMUyQGC-2" value="&lt;div&gt;Moderator&lt;/div&gt;" style="shape=umlActor;verticalLabelPosition=bottom;labelBackgroundColor=#ffffff;verticalAlign=top;html=1;" vertex="1" parent="1">
          <mxGeometry x="400" y="560" width="40" height="80" as="geometry"/>
        </mxCell>
        <mxCell id="OV3nKJfsx8NweEMUyQGC-3" value="AddPhoto" style="ellipse;whiteSpace=wrap;html=1;" vertex="1" parent="1">
          <mxGeometry x="320" y="80" width="120" height="80" as="geometry"/>
        </mxCell>
        <mxCell id="OV3nKJfsx8NweEMUyQGC-7" value="DeletePhoto" style="ellipse;whiteSpace=wrap;html=1;" vertex="1" parent="1">
          <mxGeometry x="320" y="240" width="120" height="80" as="geometry"/>
        </mxCell>
        <mxCell id="OV3nKJfsx8NweEMUyQGC-8" value="ChangePhoto" style="ellipse;whiteSpace=wrap;html=1;" vertex="1" parent="1">
          <mxGeometry x="320" y="160" width="120" height="80" as="geometry"/>
        </mxCell>
        <mxCell id="OV3nKJfsx8NweEMUyQGC-12" value="1" style="text;html=1;strokeColor=none;fillColor=none;align=center;verticalAlign=middle;whiteSpace=wrap;rounded=0;rotation=-45;" vertex="1" parent="1">
          <mxGeometry x="180" y="220" width="40" height="20" as="geometry"/>
        </mxCell>
        <mxCell id="OV3nKJfsx8NweEMUyQGC-15" value="1" style="text;html=1;strokeColor=none;fillColor=none;align=center;verticalAlign=middle;whiteSpace=wrap;rounded=0;rotation=0;" vertex="1" parent="1">
          <mxGeometry x="190" y="262" width="40" height="20" as="geometry"/>
        </mxCell>
        <mxCell id="OV3nKJfsx8NweEMUyQGC-18" value="*" style="text;html=1;strokeColor=none;fillColor=none;align=center;verticalAlign=middle;whiteSpace=wrap;rounded=0;rotation=0;" vertex="1" parent="1">
          <mxGeometry x="280" y="210" width="40" height="20" as="geometry"/>
        </mxCell>
        <mxCell id="OV3nKJfsx8NweEMUyQGC-19" value="*" style="text;html=1;strokeColor=none;fillColor=none;align=center;verticalAlign=middle;whiteSpace=wrap;rounded=0;rotation=-45;" vertex="1" parent="1">
          <mxGeometry x="290" y="110" width="40" height="20" as="geometry"/>
        </mxCell>
        <mxCell id="OV3nKJfsx8NweEMUyQGC-20" value="*" style="text;html=1;strokeColor=none;fillColor=none;align=center;verticalAlign=middle;whiteSpace=wrap;rounded=0;rotation=0;" vertex="1" parent="1">
          <mxGeometry x="280" y="260" width="40" height="20" as="geometry"/>
        </mxCell>
        <mxCell id="OV3nKJfsx8NweEMUyQGC-22" value="" style="group" vertex="1" connectable="0" parent="1">
          <mxGeometry x="600" y="200" width="80" height="100" as="geometry"/>
        </mxCell>
        <mxCell id="OV3nKJfsx8NweEMUyQGC-4" value="" style="ellipse;whiteSpace=wrap;html=1;aspect=fixed;" vertex="1" parent="OV3nKJfsx8NweEMUyQGC-22">
          <mxGeometry width="80" height="80" as="geometry"/>
        </mxCell>
        <mxCell id="OV3nKJfsx8NweEMUyQGC-5" value="Photo" style="text;html=1;strokeColor=none;fillColor=none;align=center;verticalAlign=middle;whiteSpace=wrap;rounded=0;" vertex="1" parent="OV3nKJfsx8NweEMUyQGC-22">
          <mxGeometry x="20" y="80" width="40" height="20" as="geometry"/>
        </mxCell>
        <mxCell id="OV3nKJfsx8NweEMUyQGC-23" value="" style="group" vertex="1" connectable="0" parent="1">
          <mxGeometry x="600" y="350" width="80" height="100" as="geometry"/>
        </mxCell>
        <mxCell id="OV3nKJfsx8NweEMUyQGC-24" value="" style="ellipse;whiteSpace=wrap;html=1;aspect=fixed;" vertex="1" parent="OV3nKJfsx8NweEMUyQGC-23">
          <mxGeometry width="80" height="80" as="geometry"/>
        </mxCell>
        <mxCell id="OV3nKJfsx8NweEMUyQGC-25" value="PhotoAlbum" style="text;html=1;strokeColor=none;fillColor=none;align=center;verticalAlign=middle;whiteSpace=wrap;rounded=0;" vertex="1" parent="OV3nKJfsx8NweEMUyQGC-23">
          <mxGeometry x="20" y="80" width="40" height="20" as="geometry"/>
        </mxCell>
        <mxCell id="OV3nKJfsx8NweEMUyQGC-27" value="1" style="text;html=1;strokeColor=none;fillColor=none;align=center;verticalAlign=middle;whiteSpace=wrap;rounded=0;rotation=-15;" vertex="1" parent="1">
          <mxGeometry x="190" y="240" width="40" height="20" as="geometry"/>
        </mxCell>
        <mxCell id="OV3nKJfsx8NweEMUyQGC-29" value="AddAlbum" style="ellipse;whiteSpace=wrap;html=1;" vertex="1" parent="1">
          <mxGeometry x="320" y="320" width="120" height="80" as="geometry"/>
        </mxCell>
        <mxCell id="OV3nKJfsx8NweEMUyQGC-30" value="DeleteAlbum" style="ellipse;whiteSpace=wrap;html=1;" vertex="1" parent="1">
          <mxGeometry x="320" y="400" width="120" height="80" as="geometry"/>
        </mxCell>
        <mxCell id="OV3nKJfsx8NweEMUyQGC-33" value="*" style="text;html=1;strokeColor=none;fillColor=none;align=center;verticalAlign=middle;whiteSpace=wrap;rounded=0;rotation=30;" vertex="1" parent="1">
          <mxGeometry x="290" y="330" width="40" height="20" as="geometry"/>
        </mxCell>
        <mxCell id="OV3nKJfsx8NweEMUyQGC-35" value="*" style="text;html=1;strokeColor=none;fillColor=none;align=center;verticalAlign=middle;whiteSpace=wrap;rounded=0;rotation=45;" vertex="1" parent="1">
          <mxGeometry x="290" y="410" width="40" height="20" as="geometry"/>
        </mxCell>
        <mxCell id="OV3nKJfsx8NweEMUyQGC-36" value="1" style="text;html=1;strokeColor=none;fillColor=none;align=center;verticalAlign=middle;whiteSpace=wrap;rounded=0;rotation=30;" vertex="1" parent="1">
          <mxGeometry x="199" y="281" width="40" height="20" as="geometry"/>
        </mxCell>
        <mxCell id="OV3nKJfsx8NweEMUyQGC-37" value="1" style="text;html=1;strokeColor=none;fillColor=none;align=center;verticalAlign=middle;whiteSpace=wrap;rounded=0;rotation=45;" vertex="1" parent="1">
          <mxGeometry x="190" y="300" width="40" height="20" as="geometry"/>
        </mxCell>
        <mxCell id="OV3nKJfsx8NweEMUyQGC-38" value="ShowPhoto" style="ellipse;whiteSpace=wrap;html=1;" vertex="1" parent="1">
          <mxGeometry x="490" y="30" width="120" height="80" as="geometry"/>
        </mxCell>
        <mxCell id="OV3nKJfsx8NweEMUyQGC-39" value="CommentPhoto" style="ellipse;whiteSpace=wrap;html=1;" vertex="1" parent="1">
          <mxGeometry x="660" y="30" width="120" height="80" as="geometry"/>
        </mxCell>
        <mxCell id="OV3nKJfsx8NweEMUyQGC-41" style="edgeStyle=none;rounded=0;orthogonalLoop=1;jettySize=auto;html=1;entryX=0.5;entryY=0;entryDx=0;entryDy=0;endArrow=none;endFill=0;dashed=1;startArrow=classic;startFill=1;" edge="1" parent="1" source="OV3nKJfsx8NweEMUyQGC-24" target="OV3nKJfsx8NweEMUyQGC-5">
          <mxGeometry relative="1" as="geometry"/>
        </mxCell>
      </root>
    </mxGraphModel>
  </diagram>
</mxfile>
